%TF.GenerationSoftware,KiCad,Pcbnew,8.0.3*%
%TF.CreationDate,2024-09-29T14:06:08+02:00*%
%TF.ProjectId,EasyFlyback2,45617379-466c-4796-9261-636b322e6b69,rev?*%
%TF.SameCoordinates,Original*%
%TF.FileFunction,Soldermask,Bot*%
%TF.FilePolarity,Negative*%
%FSLAX46Y46*%
G04 Gerber Fmt 4.6, Leading zero omitted, Abs format (unit mm)*
G04 Created by KiCad (PCBNEW 8.0.3) date 2024-09-29 14:06:08*
%MOMM*%
%LPD*%
G01*
G04 APERTURE LIST*
%ADD10C,1.600000*%
%ADD11O,1.600000X1.600000*%
%ADD12C,2.400000*%
%ADD13R,1.600000X1.600000*%
%ADD14R,2.000000X2.000000*%
%ADD15C,2.000000*%
%ADD16R,2.200000X2.200000*%
%ADD17O,2.200000X2.200000*%
%ADD18C,3.600000*%
%ADD19R,3.000000X3.000000*%
%ADD20C,3.000000*%
%ADD21C,1.200000*%
%ADD22O,1.200000X2.200000*%
%ADD23O,1.600000X2.300000*%
%ADD24O,2.200000X1.200000*%
%ADD25O,1.600000X2.500000*%
%ADD26R,1.800000X1.800000*%
%ADD27C,1.800000*%
%ADD28C,1.440000*%
%ADD29O,2.400000X2.400000*%
%ADD30R,2.500000X4.500000*%
%ADD31O,2.500000X4.500000*%
%ADD32R,1.200000X1.200000*%
%ADD33R,1.500000X1.050000*%
%ADD34O,1.500000X1.050000*%
G04 APERTURE END LIST*
D10*
%TO.C,R11*%
X142500000Y-109580000D03*
D11*
X132340000Y-109580000D03*
%TD*%
D10*
%TO.C,C7*%
X158000000Y-122000000D03*
X153000000Y-122000000D03*
%TD*%
D12*
%TO.C,C15*%
X151000000Y-81000000D03*
X166000000Y-81000000D03*
%TD*%
D13*
%TO.C,U2*%
X153500000Y-110380000D03*
D11*
X150960000Y-110380000D03*
X148420000Y-110380000D03*
X145880000Y-110380000D03*
X145880000Y-118000000D03*
X148420000Y-118000000D03*
X150960000Y-118000000D03*
X153500000Y-118000000D03*
%TD*%
D14*
%TO.C,C12*%
X171132323Y-101000000D03*
D15*
X176132323Y-101000000D03*
%TD*%
D16*
%TO.C,D1*%
X146810000Y-96500000D03*
D17*
X139190000Y-96500000D03*
%TD*%
D18*
%TO.C,H1*%
X124000000Y-56500000D03*
%TD*%
D13*
%TO.C,C6*%
X162000000Y-116000000D03*
D10*
X164000000Y-116000000D03*
%TD*%
%TO.C,R2*%
X147500000Y-100000000D03*
D11*
X137340000Y-100000000D03*
%TD*%
D10*
%TO.C,R14*%
X165580000Y-99000000D03*
D11*
X155420000Y-99000000D03*
%TD*%
D18*
%TO.C,H4*%
X175500000Y-120500000D03*
%TD*%
D10*
%TO.C,R7*%
X135500000Y-95080000D03*
D11*
X135500000Y-84920000D03*
%TD*%
D10*
%TO.C,R5*%
X142400000Y-78080000D03*
D11*
X142400000Y-67920000D03*
%TD*%
D19*
%TO.C,J3*%
X150000000Y-58500000D03*
D20*
X155000000Y-58500000D03*
%TD*%
D21*
%TO.C,J4*%
X144000000Y-58000000D03*
X144000000Y-55500000D03*
X139000000Y-63000000D03*
X134000000Y-58000000D03*
X134000000Y-55500000D03*
D22*
X144000000Y-63000000D03*
D23*
X141500000Y-63000000D03*
D24*
X139000000Y-58000000D03*
D22*
X134000000Y-63000000D03*
D25*
X136500000Y-63000000D03*
%TD*%
D10*
%TO.C,R9*%
X128500000Y-95080000D03*
D11*
X128500000Y-84920000D03*
%TD*%
D26*
%TO.C,D3*%
X163000000Y-108000000D03*
D27*
X163000000Y-110540000D03*
%TD*%
D13*
%TO.C,C1*%
X127500000Y-107500000D03*
D10*
X127500000Y-105500000D03*
%TD*%
D26*
%TO.C,D2*%
X127500000Y-98500000D03*
D27*
X127500000Y-101040000D03*
%TD*%
D10*
%TO.C,R10*%
X123500000Y-82080000D03*
D11*
X123500000Y-71920000D03*
%TD*%
D28*
%TO.C,RV1*%
X136000000Y-119160000D03*
X136000000Y-116620000D03*
X136000000Y-114080000D03*
%TD*%
D10*
%TO.C,R3*%
X132000000Y-95080000D03*
D11*
X132000000Y-84920000D03*
%TD*%
D12*
%TO.C,R1*%
X152660000Y-104500000D03*
D29*
X132340000Y-104500000D03*
%TD*%
D15*
%TO.C,SW1*%
X123500000Y-64500000D03*
X130000000Y-64500000D03*
X123500000Y-69000000D03*
X130000000Y-69000000D03*
%TD*%
D30*
%TO.C,Q2*%
X163950000Y-87500000D03*
D31*
X158500000Y-87500000D03*
X153050000Y-87500000D03*
%TD*%
D10*
%TO.C,C4*%
X138900000Y-82000000D03*
X133900000Y-82000000D03*
%TD*%
D32*
%TO.C,C5*%
X135500000Y-71000000D03*
D21*
X137000000Y-71000000D03*
%TD*%
D10*
%TO.C,R4*%
X127000000Y-82080000D03*
D11*
X127000000Y-71920000D03*
%TD*%
D14*
%TO.C,C11*%
X171132323Y-90000000D03*
D15*
X176132323Y-90000000D03*
%TD*%
D18*
%TO.C,H3*%
X124000000Y-120500000D03*
%TD*%
D10*
%TO.C,C2*%
X141900000Y-82000000D03*
X146900000Y-82000000D03*
%TD*%
D13*
%TO.C,U1*%
X146500000Y-85200000D03*
D11*
X143960000Y-85200000D03*
X141420000Y-85200000D03*
X138880000Y-85200000D03*
X138880000Y-92820000D03*
X141420000Y-92820000D03*
X143960000Y-92820000D03*
X146500000Y-92820000D03*
%TD*%
D10*
%TO.C,C8*%
X150000000Y-122000000D03*
X145000000Y-122000000D03*
%TD*%
%TO.C,C3*%
X138900000Y-77500000D03*
X133900000Y-77500000D03*
%TD*%
D12*
%TO.C,C14*%
X151000000Y-74000000D03*
X166000000Y-74000000D03*
%TD*%
D18*
%TO.C,H2*%
X175500000Y-56500000D03*
%TD*%
D33*
%TO.C,Q3*%
X158500000Y-95270000D03*
D34*
X158500000Y-94000000D03*
X158500000Y-92730000D03*
%TD*%
D10*
%TO.C,R15*%
X155420000Y-102500000D03*
D11*
X165580000Y-102500000D03*
%TD*%
D10*
%TO.C,R8*%
X130500000Y-82080000D03*
D11*
X130500000Y-71920000D03*
%TD*%
D10*
%TO.C,R13*%
X141500000Y-122660000D03*
D11*
X141500000Y-112500000D03*
%TD*%
D10*
%TO.C,R12*%
X157000000Y-109000000D03*
D11*
X157000000Y-119160000D03*
%TD*%
D14*
%TO.C,C10*%
X171132323Y-79000000D03*
D15*
X176132323Y-79000000D03*
%TD*%
D10*
%TO.C,R6*%
X146400000Y-68000000D03*
D11*
X146400000Y-78160000D03*
%TD*%
D12*
%TO.C,C13*%
X151000000Y-67000000D03*
X166000000Y-67000000D03*
%TD*%
D14*
%TO.C,C9*%
X171132323Y-68000000D03*
D15*
X176132323Y-68000000D03*
%TD*%
D19*
%TO.C,J2*%
X163000000Y-58500000D03*
D20*
X168000000Y-58500000D03*
%TD*%
M02*
