M48
; DRILL file {KiCad 8.0.3} date 2024-09-29T14:07:59+0200
; FORMAT={-:-/ absolute / inch / decimal}
; #@! TF.CreationDate,2024-09-29T14:07:59+02:00
; #@! TF.GenerationSoftware,Kicad,Pcbnew,8.0.3
; #@! TF.FileFunction,Plated,1,4,PTH
FMAT,2
INCH
; #@! TA.AperFunction,Plated,PTH,ViaDrill
T1C0.0118
; #@! TA.AperFunction,Plated,PTH,ComponentDrill
T2C0.0157
; #@! TA.AperFunction,Plated,PTH,ComponentDrill
T3C0.0236
; #@! TA.AperFunction,Plated,PTH,ComponentDrill
T4C0.0295
; #@! TA.AperFunction,Plated,PTH,ComponentDrill
T5C0.0315
; #@! TA.AperFunction,Plated,PTH,ComponentDrill
T6C0.0354
; #@! TA.AperFunction,Plated,PTH,ComponentDrill
T7C0.0394
; #@! TA.AperFunction,Plated,PTH,ComponentDrill
T8C0.0433
; #@! TA.AperFunction,Plated,PTH,ComponentDrill
T9C0.0472
; #@! TA.AperFunction,Plated,PTH,ComponentDrill
T10C0.0512
; #@! TA.AperFunction,Plated,PTH,ComponentDrill
T11C0.0591
; #@! TA.AperFunction,Plated,PTH,ComponentDrill
T12C0.1260
%
G90
G05
T1
X4.8622Y-2.9331
X4.9213Y-4.0354
X5.3543Y-4.1142
X5.374Y-3.0512
X5.5709Y-4.7244
X5.5906Y-3.7992
X5.7087Y-3.2283
X5.7677Y-3.4449
X6.0433Y-4.4291
X6.0433Y-4.5669
X6.1024Y-3.7598
X6.5157Y-4.252
X6.5551Y-4.5669
T3
X5.3346Y-2.7953
X5.3937Y-2.7953
T4
X6.2402Y-3.6508
X6.2402Y-3.7008
X6.2402Y-3.7508
T5
X4.8622Y-2.8315
X4.8622Y-3.2315
X5.0Y-2.8315
X5.0Y-3.2315
X5.0197Y-4.1535
X5.0197Y-4.2323
X5.0591Y-3.3433
X5.0591Y-3.7433
X5.1378Y-2.8315
X5.1378Y-3.2315
X5.1969Y-3.3433
X5.1969Y-3.7433
X5.2102Y-4.3142
X5.2717Y-3.0512
X5.2717Y-3.2283
X5.3346Y-3.3433
X5.3346Y-3.7433
X5.3543Y-4.4913
X5.3543Y-4.5913
X5.3543Y-4.6913
X5.4071Y-3.937
X5.4677Y-3.3543
X5.4677Y-3.6543
X5.4685Y-3.0512
X5.4685Y-3.2283
X5.5677Y-3.3543
X5.5677Y-3.6543
X5.5709Y-4.4291
X5.5709Y-4.8291
X5.5866Y-3.2283
X5.6063Y-2.674
X5.6063Y-3.074
X5.6102Y-4.3142
X5.6677Y-3.3543
X5.6677Y-3.6543
X5.7087Y-4.8031
X5.7433Y-4.3457
X5.7433Y-4.6457
X5.7638Y-2.6772
X5.7638Y-3.0772
X5.7677Y-3.3543
X5.7677Y-3.6543
X5.7835Y-3.2283
X5.8071Y-3.937
X5.8433Y-4.3457
X5.8433Y-4.6457
X5.9055Y-4.8031
X5.9433Y-4.3457
X5.9433Y-4.6457
X6.0236Y-4.8031
X6.0433Y-4.3457
X6.0433Y-4.6457
X6.1189Y-3.8976
X6.1189Y-4.0354
X6.1811Y-4.2913
X6.1811Y-4.6913
X6.2205Y-4.8031
X6.378Y-4.5669
X6.4567Y-4.5669
X6.5189Y-3.8976
X6.5189Y-4.0354
T6
X5.0197Y-3.878
X5.0197Y-3.978
X6.4173Y-4.252
X6.4173Y-4.352
T7
X6.7375Y-2.6772
X6.7375Y-3.1102
X6.7375Y-3.5433
X6.7375Y-3.9764
X6.9343Y-2.6772
X6.9343Y-3.1102
X6.9343Y-3.5433
X6.9343Y-3.9764
T8
X4.8622Y-2.5394
X4.8622Y-2.7165
X5.1181Y-2.5394
X5.1181Y-2.7165
X5.4799Y-3.7992
X5.7799Y-3.7992
T9
X5.2102Y-4.1142
X5.9449Y-2.6378
X5.9449Y-2.9134
X5.9449Y-3.189
X6.0102Y-4.1142
X6.5354Y-2.6378
X6.5354Y-2.9134
X6.5354Y-3.189
T10
X5.9055Y-2.3031
X6.1024Y-2.3031
X6.4173Y-2.3031
X6.6142Y-2.3031
T11
X6.0256Y-3.4449
X6.2402Y-3.4449
X6.4547Y-3.4449
T12
X4.8819Y-2.2244
X4.8819Y-4.7441
X6.9094Y-2.2244
X6.9094Y-4.7441
T2
G00X5.2756Y-2.4606
M15
G01X5.2756Y-2.5
M16
G05
G00X5.4921Y-2.2835
M15
G01X5.4528Y-2.2835
M16
G05
G00X5.6693Y-2.5
M15
G01X5.6693Y-2.4606
M16
G05
T5
G00X5.374Y-2.4665
M15
G01X5.374Y-2.4941
M16
G05
G00X5.5709Y-2.4941
M15
G01X5.5709Y-2.4665
M16
G05
M30
