%TF.GenerationSoftware,KiCad,Pcbnew,8.0.3*%
%TF.CreationDate,2024-09-29T14:06:08+02:00*%
%TF.ProjectId,EasyFlyback2,45617379-466c-4796-9261-636b322e6b69,rev?*%
%TF.SameCoordinates,Original*%
%TF.FileFunction,Copper,L1,Top*%
%TF.FilePolarity,Positive*%
%FSLAX46Y46*%
G04 Gerber Fmt 4.6, Leading zero omitted, Abs format (unit mm)*
G04 Created by KiCad (PCBNEW 8.0.3) date 2024-09-29 14:06:08*
%MOMM*%
%LPD*%
G01*
G04 APERTURE LIST*
G04 Aperture macros list*
%AMRoundRect*
0 Rectangle with rounded corners*
0 $1 Rounding radius*
0 $2 $3 $4 $5 $6 $7 $8 $9 X,Y pos of 4 corners*
0 Add a 4 corners polygon primitive as box body*
4,1,4,$2,$3,$4,$5,$6,$7,$8,$9,$2,$3,0*
0 Add four circle primitives for the rounded corners*
1,1,$1+$1,$2,$3*
1,1,$1+$1,$4,$5*
1,1,$1+$1,$6,$7*
1,1,$1+$1,$8,$9*
0 Add four rect primitives between the rounded corners*
20,1,$1+$1,$2,$3,$4,$5,0*
20,1,$1+$1,$4,$5,$6,$7,0*
20,1,$1+$1,$6,$7,$8,$9,0*
20,1,$1+$1,$8,$9,$2,$3,0*%
G04 Aperture macros list end*
%TA.AperFunction,ComponentPad*%
%ADD10C,1.600000*%
%TD*%
%TA.AperFunction,ComponentPad*%
%ADD11O,1.600000X1.600000*%
%TD*%
%TA.AperFunction,ComponentPad*%
%ADD12C,2.400000*%
%TD*%
%TA.AperFunction,ComponentPad*%
%ADD13R,1.600000X1.600000*%
%TD*%
%TA.AperFunction,ComponentPad*%
%ADD14R,2.000000X2.000000*%
%TD*%
%TA.AperFunction,ComponentPad*%
%ADD15C,2.000000*%
%TD*%
%TA.AperFunction,ComponentPad*%
%ADD16R,2.200000X2.200000*%
%TD*%
%TA.AperFunction,ComponentPad*%
%ADD17O,2.200000X2.200000*%
%TD*%
%TA.AperFunction,ComponentPad*%
%ADD18C,3.600000*%
%TD*%
%TA.AperFunction,ConnectorPad*%
%ADD19C,5.700000*%
%TD*%
%TA.AperFunction,ComponentPad*%
%ADD20R,3.000000X3.000000*%
%TD*%
%TA.AperFunction,ComponentPad*%
%ADD21C,3.000000*%
%TD*%
%TA.AperFunction,ComponentPad*%
%ADD22O,1.200000X2.200000*%
%TD*%
%TA.AperFunction,ComponentPad*%
%ADD23O,1.600000X2.300000*%
%TD*%
%TA.AperFunction,ComponentPad*%
%ADD24O,2.200000X1.200000*%
%TD*%
%TA.AperFunction,ComponentPad*%
%ADD25O,1.600000X2.500000*%
%TD*%
%TA.AperFunction,ComponentPad*%
%ADD26R,1.800000X1.800000*%
%TD*%
%TA.AperFunction,ComponentPad*%
%ADD27C,1.800000*%
%TD*%
%TA.AperFunction,ComponentPad*%
%ADD28C,1.440000*%
%TD*%
%TA.AperFunction,ComponentPad*%
%ADD29O,2.400000X2.400000*%
%TD*%
%TA.AperFunction,ComponentPad*%
%ADD30R,2.500000X4.500000*%
%TD*%
%TA.AperFunction,ComponentPad*%
%ADD31O,2.500000X4.500000*%
%TD*%
%TA.AperFunction,ComponentPad*%
%ADD32R,1.200000X1.200000*%
%TD*%
%TA.AperFunction,ComponentPad*%
%ADD33C,1.200000*%
%TD*%
%TA.AperFunction,ComponentPad*%
%ADD34R,1.500000X1.050000*%
%TD*%
%TA.AperFunction,ComponentPad*%
%ADD35O,1.500000X1.050000*%
%TD*%
%TA.AperFunction,SMDPad,CuDef*%
%ADD36RoundRect,0.225000X-0.375000X0.225000X-0.375000X-0.225000X0.375000X-0.225000X0.375000X0.225000X0*%
%TD*%
%TA.AperFunction,ViaPad*%
%ADD37C,0.600000*%
%TD*%
%TA.AperFunction,Conductor*%
%ADD38C,3.000000*%
%TD*%
%TA.AperFunction,Conductor*%
%ADD39C,0.200000*%
%TD*%
G04 APERTURE END LIST*
D10*
%TO.P,R11,1*%
%TO.N,OUT*%
X142500000Y-109580000D03*
D11*
%TO.P,R11,2*%
%TO.N,Net-(R11-Pad2)*%
X132340000Y-109580000D03*
%TD*%
D10*
%TO.P,C7,1*%
%TO.N,GND*%
X158000000Y-122000000D03*
%TO.P,C7,2*%
%TO.N,Net-(U2-CV)*%
X153000000Y-122000000D03*
%TD*%
D12*
%TO.P,C15,1*%
%TO.N,/DRAIN*%
X151000000Y-81000000D03*
%TO.P,C15,2*%
%TO.N,GND*%
X166000000Y-81000000D03*
%TD*%
D13*
%TO.P,U2,1,GND*%
%TO.N,GND*%
X153500000Y-110380000D03*
D11*
%TO.P,U2,2,TR*%
%TO.N,Net-(U2-THR)*%
X150960000Y-110380000D03*
%TO.P,U2,3,Q*%
%TO.N,OUT*%
X148420000Y-110380000D03*
%TO.P,U2,4,R*%
%TO.N,ZCD*%
X145880000Y-110380000D03*
%TO.P,U2,5,CV*%
%TO.N,Net-(U2-CV)*%
X145880000Y-118000000D03*
%TO.P,U2,6,THR*%
%TO.N,Net-(U2-THR)*%
X148420000Y-118000000D03*
%TO.P,U2,7,DIS*%
%TO.N,GND*%
X150960000Y-118000000D03*
%TO.P,U2,8,VCC*%
%TO.N,+12V*%
X153500000Y-118000000D03*
%TD*%
D14*
%TO.P,C12,1*%
%TO.N,+24V*%
X171132323Y-101000000D03*
D15*
%TO.P,C12,2*%
%TO.N,GND*%
X176132323Y-101000000D03*
%TD*%
D16*
%TO.P,D1,1,K*%
%TO.N,+12V*%
X146810000Y-96500000D03*
D17*
%TO.P,D1,2,A*%
%TO.N,GND*%
X139190000Y-96500000D03*
%TD*%
D18*
%TO.P,H1,1*%
%TO.N,N/C*%
X124000000Y-56500000D03*
D19*
X124000000Y-56500000D03*
%TD*%
D13*
%TO.P,C6,1*%
%TO.N,+12V*%
X162000000Y-116000000D03*
D10*
%TO.P,C6,2*%
%TO.N,GND*%
X164000000Y-116000000D03*
%TD*%
%TO.P,R2,1*%
%TO.N,+12V*%
X147500000Y-100000000D03*
D11*
%TO.P,R2,2*%
%TO.N,Net-(D2-A)*%
X137340000Y-100000000D03*
%TD*%
D10*
%TO.P,R14,1*%
%TO.N,Net-(Q3-B)*%
X165580000Y-99000000D03*
D11*
%TO.P,R14,2*%
%TO.N,OUT*%
X155420000Y-99000000D03*
%TD*%
D18*
%TO.P,H4,1*%
%TO.N,N/C*%
X175500000Y-120500000D03*
D19*
X175500000Y-120500000D03*
%TD*%
D10*
%TO.P,R7,1*%
%TO.N,+12V*%
X135500000Y-95080000D03*
D11*
%TO.P,R7,2*%
%TO.N,ZCD*%
X135500000Y-84920000D03*
%TD*%
D10*
%TO.P,R5,1*%
%TO.N,Net-(U1-+)*%
X142400000Y-78080000D03*
D11*
%TO.P,R5,2*%
%TO.N,ZCD*%
X142400000Y-67920000D03*
%TD*%
D20*
%TO.P,J3,1,Pin_1*%
%TO.N,GND*%
X150000000Y-58500000D03*
D21*
%TO.P,J3,2,Pin_2*%
%TO.N,+24V*%
X155000000Y-58500000D03*
%TD*%
D22*
%TO.P,J4,R*%
%TO.N,N/C*%
X144000000Y-63000000D03*
D23*
%TO.P,J4,RN*%
X141500000Y-63000000D03*
D24*
%TO.P,J4,S*%
%TO.N,Net-(C5-Pad1)*%
X139000000Y-58000000D03*
D22*
%TO.P,J4,T*%
%TO.N,Net-(J4-PadT)*%
X134000000Y-63000000D03*
D25*
%TO.P,J4,TN*%
%TO.N,N/C*%
X136500000Y-63000000D03*
%TD*%
D10*
%TO.P,R9,1*%
%TO.N,+12V*%
X128500000Y-95080000D03*
D11*
%TO.P,R9,2*%
%TO.N,Net-(C5-Pad1)*%
X128500000Y-84920000D03*
%TD*%
D26*
%TO.P,D3,1,K*%
%TO.N,GND*%
X163000000Y-108000000D03*
D27*
%TO.P,D3,2,A*%
%TO.N,Net-(D3-A)*%
X163000000Y-110540000D03*
%TD*%
D13*
%TO.P,C1,1*%
%TO.N,+12V*%
X127500000Y-107500000D03*
D10*
%TO.P,C1,2*%
%TO.N,GND*%
X127500000Y-105500000D03*
%TD*%
D26*
%TO.P,D2,1,K*%
%TO.N,GND*%
X127500000Y-98500000D03*
D27*
%TO.P,D2,2,A*%
%TO.N,Net-(D2-A)*%
X127500000Y-101040000D03*
%TD*%
D10*
%TO.P,R10,1*%
%TO.N,Net-(C5-Pad1)*%
X123500000Y-82080000D03*
D11*
%TO.P,R10,2*%
%TO.N,GND*%
X123500000Y-71920000D03*
%TD*%
D28*
%TO.P,RV1,1,1*%
%TO.N,Net-(U2-THR)*%
X136000000Y-119160000D03*
%TO.P,RV1,2,2*%
%TO.N,Net-(R11-Pad2)*%
X136000000Y-116620000D03*
%TO.P,RV1,3,3*%
X136000000Y-114080000D03*
%TD*%
D10*
%TO.P,R3,1*%
%TO.N,+12V*%
X132000000Y-95080000D03*
D11*
%TO.P,R3,2*%
%TO.N,Net-(U1--)*%
X132000000Y-84920000D03*
%TD*%
D12*
%TO.P,R1,1*%
%TO.N,+24V*%
X152660000Y-104500000D03*
D29*
%TO.P,R1,2*%
%TO.N,+12V*%
X132340000Y-104500000D03*
%TD*%
D15*
%TO.P,SW1,1,1*%
%TO.N,Net-(J4-PadT)*%
X123500000Y-64500000D03*
X130000000Y-64500000D03*
%TO.P,SW1,2,2*%
%TO.N,GND*%
X123500000Y-69000000D03*
X130000000Y-69000000D03*
%TD*%
D30*
%TO.P,Q2,1,D*%
%TO.N,GND*%
X163950000Y-87500000D03*
D31*
%TO.P,Q2,2,G*%
%TO.N,/GATE*%
X158500000Y-87500000D03*
%TO.P,Q2,3,S*%
%TO.N,/DRAIN*%
X153050000Y-87500000D03*
%TD*%
D10*
%TO.P,C4,1*%
%TO.N,Net-(U1-+)*%
X138900000Y-82000000D03*
%TO.P,C4,2*%
%TO.N,Net-(C4-Pad2)*%
X133900000Y-82000000D03*
%TD*%
D32*
%TO.P,C5,1*%
%TO.N,Net-(C5-Pad1)*%
X135500000Y-71000000D03*
D33*
%TO.P,C5,2*%
%TO.N,GND*%
X137000000Y-71000000D03*
%TD*%
D10*
%TO.P,R4,1*%
%TO.N,Net-(U1--)*%
X127000000Y-82080000D03*
D11*
%TO.P,R4,2*%
%TO.N,Net-(J4-PadT)*%
X127000000Y-71920000D03*
%TD*%
D14*
%TO.P,C11,1*%
%TO.N,+24V*%
X171132323Y-90000000D03*
D15*
%TO.P,C11,2*%
%TO.N,GND*%
X176132323Y-90000000D03*
%TD*%
D18*
%TO.P,H3,1*%
%TO.N,N/C*%
X124000000Y-120500000D03*
D19*
X124000000Y-120500000D03*
%TD*%
D10*
%TO.P,C2,1*%
%TO.N,GND*%
X141900000Y-82000000D03*
%TO.P,C2,2*%
%TO.N,+12V*%
X146900000Y-82000000D03*
%TD*%
D13*
%TO.P,U1,1,GND*%
%TO.N,GND*%
X146500000Y-85200000D03*
D11*
%TO.P,U1,2,+*%
%TO.N,Net-(U1-+)*%
X143960000Y-85200000D03*
%TO.P,U1,3,-*%
%TO.N,Net-(U1--)*%
X141420000Y-85200000D03*
%TO.P,U1,4,V-*%
%TO.N,GND*%
X138880000Y-85200000D03*
%TO.P,U1,5,BAL*%
%TO.N,Net-(U1-BAL)*%
X138880000Y-92820000D03*
%TO.P,U1,6,STRB*%
X141420000Y-92820000D03*
%TO.P,U1,7*%
%TO.N,ZCD*%
X143960000Y-92820000D03*
%TO.P,U1,8,V+*%
%TO.N,+12V*%
X146500000Y-92820000D03*
%TD*%
D10*
%TO.P,C8,1*%
%TO.N,GND*%
X150000000Y-122000000D03*
%TO.P,C8,2*%
%TO.N,Net-(U2-THR)*%
X145000000Y-122000000D03*
%TD*%
%TO.P,C3,1*%
%TO.N,+12V*%
X138900000Y-77500000D03*
%TO.P,C3,2*%
%TO.N,Net-(U1--)*%
X133900000Y-77500000D03*
%TD*%
D12*
%TO.P,C14,1*%
%TO.N,/DRAIN*%
X151000000Y-74000000D03*
%TO.P,C14,2*%
%TO.N,GND*%
X166000000Y-74000000D03*
%TD*%
D18*
%TO.P,H2,1*%
%TO.N,N/C*%
X175500000Y-56500000D03*
D19*
X175500000Y-56500000D03*
%TD*%
D34*
%TO.P,Q3,1,C*%
%TO.N,GND*%
X158500000Y-95270000D03*
D35*
%TO.P,Q3,2,B*%
%TO.N,Net-(Q3-B)*%
X158500000Y-94000000D03*
%TO.P,Q3,3,E*%
%TO.N,/GATE*%
X158500000Y-92730000D03*
%TD*%
D10*
%TO.P,R15,1*%
%TO.N,OUT*%
X155420000Y-102500000D03*
D11*
%TO.P,R15,2*%
%TO.N,/GATE*%
X165580000Y-102500000D03*
%TD*%
D10*
%TO.P,R8,1*%
%TO.N,Net-(U1-+)*%
X130500000Y-82080000D03*
D11*
%TO.P,R8,2*%
%TO.N,Net-(C5-Pad1)*%
X130500000Y-71920000D03*
%TD*%
D10*
%TO.P,R13,1*%
%TO.N,GND*%
X141500000Y-122660000D03*
D11*
%TO.P,R13,2*%
%TO.N,Net-(U2-CV)*%
X141500000Y-112500000D03*
%TD*%
D10*
%TO.P,R12,1*%
%TO.N,OUT*%
X157000000Y-109000000D03*
D11*
%TO.P,R12,2*%
%TO.N,Net-(D3-A)*%
X157000000Y-119160000D03*
%TD*%
D14*
%TO.P,C10,1*%
%TO.N,+24V*%
X171132323Y-79000000D03*
D15*
%TO.P,C10,2*%
%TO.N,GND*%
X176132323Y-79000000D03*
%TD*%
D36*
%TO.P,D4,1,K*%
%TO.N,/GATE*%
X162500000Y-92350000D03*
%TO.P,D4,2,A*%
%TO.N,GND*%
X162500000Y-95650000D03*
%TD*%
D10*
%TO.P,R6,1*%
%TO.N,Net-(C4-Pad2)*%
X146400000Y-68000000D03*
D11*
%TO.P,R6,2*%
%TO.N,ZCD*%
X146400000Y-78160000D03*
%TD*%
D12*
%TO.P,C13,1*%
%TO.N,/DRAIN*%
X151000000Y-67000000D03*
%TO.P,C13,2*%
%TO.N,GND*%
X166000000Y-67000000D03*
%TD*%
D14*
%TO.P,C9,1*%
%TO.N,+24V*%
X171132323Y-68000000D03*
D15*
%TO.P,C9,2*%
%TO.N,GND*%
X176132323Y-68000000D03*
%TD*%
D20*
%TO.P,J2,1,Pin_1*%
%TO.N,/DRAIN*%
X163000000Y-58500000D03*
D21*
%TO.P,J2,2,Pin_2*%
%TO.N,+24V*%
X168000000Y-58500000D03*
%TD*%
D37*
%TO.N,+12V*%
X153500000Y-116000000D03*
X136000000Y-104500000D03*
X145000000Y-82000000D03*
X136500000Y-77500000D03*
%TO.N,GND*%
X166500000Y-116000000D03*
X123500000Y-74500000D03*
X146500000Y-87500000D03*
X153500000Y-112500000D03*
X125000000Y-102500000D03*
X155000000Y-95500000D03*
X142000000Y-96500000D03*
X165500000Y-108000000D03*
X141500000Y-120000000D03*
%TD*%
D38*
%TO.N,GND*%
X163950000Y-87500000D02*
X163950000Y-83050000D01*
X176132323Y-79000000D02*
X176132323Y-68000000D01*
X166000000Y-81000000D02*
X166000000Y-74000000D01*
X176132323Y-90000000D02*
X176132323Y-79000000D01*
D39*
X162500000Y-95650000D02*
X160650000Y-95650000D01*
D38*
X176132323Y-101000000D02*
X176132323Y-90000000D01*
X166000000Y-67000000D02*
X156500000Y-67000000D01*
X169500000Y-63500000D02*
X166000000Y-67000000D01*
X156500000Y-67000000D02*
X150000000Y-60500000D01*
X150000000Y-60500000D02*
X150000000Y-58500000D01*
X166000000Y-74000000D02*
X166000000Y-67000000D01*
D39*
X160270000Y-95270000D02*
X158500000Y-95270000D01*
D38*
X163950000Y-83050000D02*
X166000000Y-81000000D01*
X171632323Y-63500000D02*
X169500000Y-63500000D01*
X176132323Y-68000000D02*
X171632323Y-63500000D01*
D39*
X160650000Y-95650000D02*
X160270000Y-95270000D01*
%TO.N,Net-(U1--)*%
X133420000Y-83500000D02*
X132000000Y-84920000D01*
X131580000Y-77500000D02*
X133900000Y-77500000D01*
X127000000Y-82080000D02*
X131580000Y-77500000D01*
X127000000Y-82080000D02*
X128131370Y-82080000D01*
X139720000Y-83500000D02*
X133420000Y-83500000D01*
X130971370Y-84920000D02*
X132000000Y-84920000D01*
X141420000Y-85200000D02*
X139720000Y-83500000D01*
X128131370Y-82080000D02*
X130971370Y-84920000D01*
%TO.N,Net-(U1-+)*%
X138900000Y-81580000D02*
X138900000Y-82000000D01*
X130500000Y-82080000D02*
X131520000Y-83100000D01*
X131520000Y-83100000D02*
X137800000Y-83100000D01*
X142260000Y-83500000D02*
X140400000Y-83500000D01*
X143960000Y-85200000D02*
X142260000Y-83500000D01*
X137800000Y-83100000D02*
X138900000Y-82000000D01*
X142400000Y-78080000D02*
X138900000Y-81580000D01*
X140400000Y-83500000D02*
X138900000Y-82000000D01*
%TO.N,Net-(C4-Pad2)*%
X136500000Y-82000000D02*
X133900000Y-82000000D01*
X146400000Y-68000000D02*
X146400000Y-72100000D01*
X146400000Y-72100000D02*
X136500000Y-82000000D01*
%TO.N,Net-(C5-Pad1)*%
X130500000Y-71920000D02*
X130500000Y-75080000D01*
X135500000Y-71000000D02*
X140000000Y-66500000D01*
X140000000Y-59000000D02*
X139000000Y-58000000D01*
X126340000Y-84920000D02*
X128500000Y-84920000D01*
X123500000Y-82080000D02*
X126340000Y-84920000D01*
X130500000Y-75080000D02*
X123500000Y-82080000D01*
X140000000Y-66500000D02*
X140000000Y-59000000D01*
X134580000Y-71920000D02*
X135500000Y-71000000D01*
X130500000Y-71920000D02*
X134580000Y-71920000D01*
%TO.N,Net-(U2-CV)*%
X141500000Y-113620000D02*
X145880000Y-118000000D01*
X141500000Y-112500000D02*
X141500000Y-113620000D01*
%TO.N,Net-(U2-THR)*%
X145000000Y-122000000D02*
X148420000Y-118580000D01*
X150960000Y-115040000D02*
X150960000Y-110380000D01*
X148420000Y-118000000D02*
X148420000Y-117580000D01*
X148420000Y-117580000D02*
X150960000Y-115040000D01*
X136000000Y-119160000D02*
X142160000Y-119160000D01*
X148420000Y-118580000D02*
X148420000Y-118000000D01*
X142160000Y-119160000D02*
X145000000Y-122000000D01*
%TO.N,Net-(D2-A)*%
X137340000Y-100000000D02*
X131000000Y-100000000D01*
X131000000Y-100000000D02*
X129960000Y-101040000D01*
X129960000Y-101040000D02*
X127500000Y-101040000D01*
%TO.N,Net-(D3-A)*%
X157000000Y-114000000D02*
X160500000Y-110500000D01*
X157000000Y-119160000D02*
X157000000Y-114000000D01*
X160540000Y-110540000D02*
X163000000Y-110540000D01*
X160500000Y-110500000D02*
X160540000Y-110540000D01*
%TO.N,/GATE*%
X160150000Y-92350000D02*
X159770000Y-92730000D01*
X167500000Y-100580000D02*
X167500000Y-95000000D01*
X164850000Y-92350000D02*
X162500000Y-92350000D01*
X158500000Y-92730000D02*
X158500000Y-87500000D01*
X162500000Y-92350000D02*
X160150000Y-92350000D01*
X159770000Y-92730000D02*
X158500000Y-92730000D01*
X167500000Y-95000000D02*
X164850000Y-92350000D01*
X165580000Y-102500000D02*
X167500000Y-100580000D01*
%TO.N,Net-(J4-PadT)*%
X132500000Y-64500000D02*
X134000000Y-63000000D01*
X123500000Y-64500000D02*
X130000000Y-64500000D01*
X130000000Y-64500000D02*
X127000000Y-67500000D01*
X130000000Y-64500000D02*
X132500000Y-64500000D01*
X127000000Y-67500000D02*
X127000000Y-71920000D01*
%TO.N,Net-(Q3-B)*%
X163500000Y-94000000D02*
X158500000Y-94000000D01*
X165580000Y-96080000D02*
X163500000Y-94000000D01*
X165580000Y-99000000D02*
X165580000Y-96080000D01*
%TO.N,ZCD*%
X145880000Y-104880000D02*
X143960000Y-102960000D01*
X148000000Y-89000000D02*
X146420000Y-89000000D01*
X148500000Y-76060000D02*
X146400000Y-78160000D01*
X143960000Y-91460000D02*
X143960000Y-92820000D01*
X143580000Y-67920000D02*
X145000000Y-66500000D01*
X148500000Y-80260000D02*
X148500000Y-88500000D01*
X148500000Y-67500000D02*
X148500000Y-76060000D01*
X145880000Y-110380000D02*
X145880000Y-104880000D01*
X140080000Y-89500000D02*
X142000000Y-89500000D01*
X148500000Y-88500000D02*
X148000000Y-89000000D01*
X146500000Y-78260000D02*
X146500000Y-78500000D01*
X143960000Y-102960000D02*
X143960000Y-92820000D01*
X145000000Y-66500000D02*
X147500000Y-66500000D01*
X146400000Y-78160000D02*
X148500000Y-80260000D01*
X142000000Y-89500000D02*
X143960000Y-91460000D01*
X142400000Y-67920000D02*
X143580000Y-67920000D01*
X147500000Y-66500000D02*
X148500000Y-67500000D01*
X146420000Y-89000000D02*
X143960000Y-91460000D01*
X146400000Y-78160000D02*
X146500000Y-78260000D01*
X135500000Y-84920000D02*
X140080000Y-89500000D01*
%TO.N,OUT*%
X144000000Y-111080000D02*
X144000000Y-112000000D01*
X155420000Y-102500000D02*
X155420000Y-99000000D01*
X150800000Y-108000000D02*
X148420000Y-110380000D01*
X142500000Y-109580000D02*
X144000000Y-111080000D01*
X157000000Y-109000000D02*
X156000000Y-108000000D01*
X146300000Y-112500000D02*
X148420000Y-110380000D01*
X155420000Y-107420000D02*
X155420000Y-102500000D01*
X157000000Y-109000000D02*
X155420000Y-107420000D01*
X156000000Y-108000000D02*
X150800000Y-108000000D01*
X144000000Y-112000000D02*
X144500000Y-112500000D01*
X144500000Y-112500000D02*
X146300000Y-112500000D01*
%TO.N,Net-(R11-Pad2)*%
X136000000Y-116620000D02*
X136000000Y-114080000D01*
%TO.N,Net-(U1-BAL)*%
X141420000Y-92820000D02*
X138880000Y-92820000D01*
%TD*%
M02*
